<svg xmlns="http://www.w3.org/2000/svg" width="109.722" height="107.733" viewBox="0 0 109.722 107.733">
  <g id="Group_1" data-name="Group 1" opacity="0.3">
    <g id="BACKGROUND" transform="translate(0 0)">
      <g id="Group_9" data-name="Group 9" transform="translate(1.3 3.993)">
        <g id="Group_8" data-name="Group 8" transform="translate(0 0)">
          <g id="Group_3" data-name="Group 3" transform="translate(0 2.428)" opacity="0.41">
            <g id="Group_2" data-name="Group 2">
              <g id="Group_1-2" data-name="Group 1">
                <path id="Path_1" data-name="Path 1" d="M28.214,106.152a32.774,32.774,0,0,1-.129-5.472A35.719,35.719,0,0,1,38.5,77.858c2.146-2.14,4.611-4.086,5.94-6.832,2.238-4.624,1.793-9.778,4.627-14.376A26.056,26.056,0,0,1,61.125,46.3c14.727-6.1,36.148,1.424,35.181,19.967,0,.067-.006.163-.008.285a6.644,6.644,0,0,0,6.8,6.8c13.849-.4,26.3,9.859,29.538,23.516,2.082,8.783-.115,18.647-6.156,25.259-4.509,4.935-10.746,7.846-17.025,9.952a106.819,106.819,0,0,1-39.222,5.02c-12.386-.615-25.566-3.543-34.02-12.8A32.111,32.111,0,0,1,28.214,106.152Z" transform="translate(-28.026 -44.223)" fill="#e1e2fe"/>
              </g>
            </g>
          </g>
          <g id="Group_4" data-name="Group 4" transform="translate(63.405)" opacity="0.31">
            <ellipse id="Ellipse_1" data-name="Ellipse 1" cx="3.182" cy="3.116" rx="3.182" ry="3.116" transform="matrix(0.021, -1, 1, 0.021, 0, 6.363)" fill="#e1e2fe"/>
          </g>
          <g id="Group_5" data-name="Group 5" transform="translate(13.783 1.605)" opacity="0.31">
            <path id="Path_2" data-name="Path 2" d="M85.611,42.511a1.608,1.608,0,1,0,1.524-1.725A1.619,1.619,0,0,0,85.611,42.511Z" transform="translate(-85.609 -40.785)" fill="#e1e2fe"/>
          </g>
          <g id="Group_6" data-name="Group 6" transform="translate(106.293 39.289)" opacity="0.31">
            <path id="Path_3" data-name="Path 3" d="M472.088,199.358a1.065,1.065,0,1,0,1.009-1.142A1.072,1.072,0,0,0,472.088,199.358Z" transform="translate(-472.086 -198.215)" fill="#e1e2fe"/>
          </g>
          <g id="Group_7" data-name="Group 7" transform="translate(91.417 90.001)" opacity="0.31">
            <ellipse id="Ellipse_2" data-name="Ellipse 2" cx="5.009" cy="4.906" rx="5.009" ry="4.906" transform="translate(0 10.017) rotate(-88.801)" fill="#e1e2fe"/>
          </g>
        </g>
      </g>
      <g id="Group_13" data-name="Group 13">
        <g id="Group_10" data-name="Group 10">
          <path id="Path_4" data-name="Path 4" d="M23.342,69.808a5.73,5.73,0,0,1,2.017-7.739c2.65-1.57,7.883-1.743,9.419.961s-2.532,5.31-4.11,7.991C28.467,74.76,24.878,72.512,23.342,69.808Z" transform="translate(-22.594 -50.512)" fill="#ecf1f7" opacity="0.47"/>
          <path id="Path_5" data-name="Path 5" d="M70.506,424.239a4.191,4.191,0,0,1-5.93-.979c-1.371-1.942-1.893-6,.011-7.405s4.155,1.566,6.275,2.589C73.819,419.872,72.409,422.837,70.506,424.239Z" transform="translate(-53.591 -320.196)" fill="#e1e2fe" opacity="0.47"/>
          <path id="Path_6" data-name="Path 6" d="M402.5,19.055a5.28,5.28,0,0,1,7.576-.115c2.121,2.1,3.643,7.029,1.58,9.2s-5.5-1.012-8.351-1.807C399.328,25.22,400.441,21.223,402.5,19.055Z" transform="translate(-310.147 -17.395)" fill="#e1e2fe" opacity="0.47"/>
        </g>
        <g id="Group_12" data-name="Group 12" transform="translate(4.008 8.073)">
          <path id="Path_7" data-name="Path 7" d="M40.7,87.939a23.352,23.352,0,0,0-.871,12.541c1.212,5.575,5.388,10.477,4.676,16.423-.427,3.568-.351,6.839-.437,10.345-.177,7.2,4.853,13.158,10.754,16.141a28.717,28.717,0,0,0,15.5,2.6,59.271,59.271,0,0,0,13.9-3.2c4.337-1.485,8.546-3.33,13.222-3.191,3.889.115,7.495,1.56,11.186,2.564,8.811,2.4,19.235,2.056,26.724-3.138,8.209-5.693,11.525-16.494,8.656-25.934-1.539-5.063-3.593-9.452-2.85-14.846.366-2.654.911-5.355.407-7.986a14.762,14.762,0,0,0-3.365-6.5c-4.245-5.115-10.289-8.377-16.572-10.3-7.127-2.177-15.04-3.364-22.451-2.237-14.4,2.189-17.53.06-32.579-2.077C56.516,67.718,47.053,75.733,42.458,84A24.965,24.965,0,0,0,40.7,87.939Z" transform="translate(-39.34 -64.706)" fill="#e1e2fe" opacity="0.32"/>
          <g id="Group_11" data-name="Group 11" transform="translate(6.186)" opacity="0.83">
            <path id="Path_8" data-name="Path 8" d="M67.324,85.937C69.4,83.2,72.6,81.343,74.174,78.2c1.88-3.764,1.484-8.206,3.163-12.051A26.147,26.147,0,0,1,89.94,52.99a17.352,17.352,0,0,1,8.593-1.831c4.476.343,8.337,3.008,11.357,6.19,4.494,4.736,7.671,11.463,13.064,15.257,2.976,2.094,6.473-.128,9.626-.832a21.815,21.815,0,0,1,10.677.36,22.711,22.711,0,0,1,14.378,12.206c2.885,6.327,2.475,15.073-2.94,20.513-2.5,2.516-5.9,4.2-7.761,7.212-2.333,3.783-2.606,8.9-3.258,13.1a27.8,27.8,0,0,1-5.688,12.925l-.1.128A18.325,18.325,0,0,1,116.4,143.6l-15.869-6.875c-16.1-6.976-28.326-18.217-34.194-34.508C65.064,98.7,64.6,91.18,66.22,87.739A10.1,10.1,0,0,1,67.324,85.937Z" transform="translate(-65.183 -51.12)" fill="#e1e2fe" opacity="0.81"/>
          </g>
        </g>
      </g>
      <circle id="Ellipse_3" data-name="Ellipse 3" cx="1.077" cy="1.077" r="1.077" transform="translate(85.447 98.374)" fill="#3e479b" opacity="0.58"/>
      <circle id="Ellipse_4" data-name="Ellipse 4" cx="0.539" cy="0.539" r="0.539" transform="translate(58.727 4.301)" fill="#3e479b" opacity="0.58"/>
      <circle id="Ellipse_5" data-name="Ellipse 5" cx="1.077" cy="1.077" r="1.077" transform="translate(24.947 100.96)" fill="#3e479b" opacity="0.58"/>
      <circle id="Ellipse_6" data-name="Ellipse 6" cx="0.838" cy="0.838" r="0.838" transform="translate(90.074 106.057)" fill="#ef929c" opacity="0.58"/>
      <circle id="Ellipse_7" data-name="Ellipse 7" cx="0.359" cy="0.359" r="0.359" transform="translate(8.13 5.24)" fill="#3e479b" opacity="0.58"/>
      <circle id="Ellipse_8" data-name="Ellipse 8" cx="1.294" cy="1.294" r="1.294" transform="translate(103.971 15.725) rotate(-63.039)" fill="#ef929c" opacity="0.58"/>
      <path id="Path_9" data-name="Path 9" d="M71.958,24.855a.507.507,0,1,1-.39-.6A.508.508,0,0,1,71.958,24.855Z" transform="translate(-59.379 -22.603)" fill="#ef929c" opacity="0.58"/>
      <path id="Path_10" data-name="Path 10" d="M286.584,18.008a.507.507,0,1,1-.39-.6A.507.507,0,0,1,286.584,18.008Z" transform="translate(-222.63 -17.395)" fill="#ef929c" opacity="0.58"/>
      <path id="Path_11" data-name="Path 11" d="M435.934,84.845a.431.431,0,1,1-.332-.512A.431.431,0,0,1,435.934,84.845Z" transform="translate(-336.345 -68.303)" fill="#3e479b" opacity="0.58"/>
      <path id="Path_12" data-name="Path 12" d="M38.391,395.252a.431.431,0,1,1-.332-.512A.431.431,0,0,1,38.391,395.252Z" transform="translate(-33.961 -304.409)" fill="#3e479b" opacity="0.58"/>
    </g>
    <g id="OBJECTS" transform="translate(10.283 6.299)">
      <g id="Group_28" data-name="Group 28" transform="translate(3.55 14.348)">
        <g id="Group_18" data-name="Group 18" transform="translate(18.306)" opacity="0.66">
          <g id="Group_17" data-name="Group 17">
            <g id="Group_14" data-name="Group 14" transform="translate(37.818)">
              <path id="Path_13" data-name="Path 13" d="M328.322,128.72h-1.868a1.424,1.424,0,0,1-1.422-1.423v-2.1a.948.948,0,0,0-.62-.886c-.221-.081-.44-.172-.653-.271a.956.956,0,0,0-1.075.184l-1.486,1.486a1.423,1.423,0,0,1-2.012,0l-1.321-1.321a1.424,1.424,0,0,1,0-2.012l1.486-1.486a.956.956,0,0,0,.184-1.075c-.1-.215-.19-.434-.271-.653a.948.948,0,0,0-.886-.62h-2.1a1.424,1.424,0,0,1-1.423-1.423v-1.868a1.424,1.424,0,0,1,1.423-1.423h2.1a.948.948,0,0,0,.886-.62c.08-.219.172-.439.271-.653a.956.956,0,0,0-.184-1.075l-1.486-1.486a1.424,1.424,0,0,1,0-2.012l1.321-1.321a1.424,1.424,0,0,1,2.012,0l1.486,1.486a.956.956,0,0,0,1.075.184c.215-.1.434-.19.653-.271a.948.948,0,0,0,.62-.886v-2.1a1.424,1.424,0,0,1,1.422-1.423h1.868a1.424,1.424,0,0,1,1.423,1.423v2.1a.948.948,0,0,0,.62.886c.219.08.439.171.653.27a.956.956,0,0,0,1.075-.184l1.486-1.486a1.424,1.424,0,0,1,2.012,0l1.321,1.321a1.424,1.424,0,0,1,0,2.012l-1.486,1.486a.955.955,0,0,0-.184,1.075c.1.214.19.434.271.653a.948.948,0,0,0,.886.62h2.1a1.424,1.424,0,0,1,1.423,1.423v1.868a1.424,1.424,0,0,1-1.423,1.423h-2.1a.948.948,0,0,0-.886.62c-.08.219-.171.439-.27.653a.955.955,0,0,0,.184,1.075l1.486,1.486a1.425,1.425,0,0,1,0,2.012l-1.321,1.321a1.423,1.423,0,0,1-2.012,0l-1.486-1.486a.956.956,0,0,0-1.075-.184c-.213.1-.433.19-.653.271a.948.948,0,0,0-.62.886v2.1A1.424,1.424,0,0,1,328.322,128.72Zm-4.97-5.249a1.44,1.44,0,0,1,.607.134c.2.093.409.179.617.255a1.428,1.428,0,0,1,.934,1.336v2.1a.945.945,0,0,0,.944.944h1.868a.945.945,0,0,0,.944-.944v-2.1a1.429,1.429,0,0,1,.934-1.336c.208-.076.416-.163.617-.255a1.436,1.436,0,0,1,1.615.28l1.486,1.486a.945.945,0,0,0,1.335,0l1.321-1.321a.945.945,0,0,0,0-1.335l-1.486-1.486a1.435,1.435,0,0,1-.28-1.615c.093-.2.18-.41.255-.617a1.428,1.428,0,0,1,1.336-.934h2.1a.945.945,0,0,0,.944-.944v-1.868a.945.945,0,0,0-.944-.944h-2.1a1.428,1.428,0,0,1-1.336-.934c-.076-.208-.162-.415-.255-.617a1.435,1.435,0,0,1,.28-1.614l1.486-1.486a.945.945,0,0,0,0-1.335L335.253,107a.946.946,0,0,0-1.335,0l-1.486,1.486a1.437,1.437,0,0,1-1.615.28c-.2-.094-.41-.18-.617-.255a1.429,1.429,0,0,1-.934-1.336v-2.1a.945.945,0,0,0-.944-.944h-1.868a.945.945,0,0,0-.944.944v2.1a1.429,1.429,0,0,1-.934,1.336c-.207.076-.415.162-.617.255a1.436,1.436,0,0,1-1.614-.28L320.859,107a.946.946,0,0,0-1.335,0l-1.321,1.321a.945.945,0,0,0,0,1.335l1.486,1.486a1.436,1.436,0,0,1,.28,1.614c-.093.2-.179.41-.256.617a1.428,1.428,0,0,1-1.336.934h-2.1a.945.945,0,0,0-.944.944v1.868a.945.945,0,0,0,.944.944h2.1a1.428,1.428,0,0,1,1.336.934c.076.207.162.414.256.617a1.437,1.437,0,0,1-.28,1.614l-1.486,1.486a.945.945,0,0,0,0,1.335l1.321,1.321a.946.946,0,0,0,1.335,0l1.486-1.486A1.425,1.425,0,0,1,323.352,123.471Zm4.036-.715a6.571,6.571,0,1,1,6.571-6.571A6.578,6.578,0,0,1,327.388,122.756Zm0-12.662a6.092,6.092,0,1,0,6.092,6.092A6.1,6.1,0,0,0,327.388,110.093Z" transform="translate(-314.853 -103.65)" fill="#fff"/>
            </g>
            <g id="Group_15" data-name="Group 15" transform="translate(21.849 47.937)" opacity="0.84">
              <path id="Path_14" data-name="Path 14" d="M274.1,315.2h-2.331a1.312,1.312,0,0,1-1.232-.862q-.132-.359-.292-.7a1.32,1.32,0,0,1,.257-1.491l1.648-1.648a1.312,1.312,0,0,0,0-1.856l-1.465-1.465a1.312,1.312,0,0,0-1.856,0l-1.648,1.649a1.32,1.32,0,0,1-1.491.257q-.345-.16-.7-.292a1.313,1.313,0,0,1-.862-1.232v-2.331a1.312,1.312,0,0,0-1.312-1.312h-2.072a1.312,1.312,0,0,0-1.312,1.312v2.331a1.313,1.313,0,0,1-.862,1.232q-.359.132-.7.292a1.32,1.32,0,0,1-1.491-.257l-1.648-1.649a1.312,1.312,0,0,0-1.856,0l-1.465,1.465a1.312,1.312,0,0,0,0,1.856l1.648,1.648a1.32,1.32,0,0,1,.257,1.491q-.16.345-.292.7a1.312,1.312,0,0,1-1.232.862H249.45a1.312,1.312,0,0,0-1.312,1.312v2.072a1.312,1.312,0,0,0,1.312,1.312h2.331a1.312,1.312,0,0,1,1.232.862q.132.359.292.7a1.32,1.32,0,0,1-.257,1.491l-1.648,1.648a1.312,1.312,0,0,0,0,1.856l1.465,1.465a1.312,1.312,0,0,0,1.856,0l1.648-1.649a1.32,1.32,0,0,1,1.491-.257q.345.16.7.292a1.313,1.313,0,0,1,.862,1.232v2.331a1.312,1.312,0,0,0,1.312,1.312h2.072a1.312,1.312,0,0,0,1.312-1.312v-2.331a1.313,1.313,0,0,1,.862-1.232q.359-.132.7-.292a1.32,1.32,0,0,1,1.491.257l1.648,1.649a1.312,1.312,0,0,0,1.856,0l1.465-1.465a1.312,1.312,0,0,0,0-1.856l-1.648-1.648a1.32,1.32,0,0,1-.257-1.491q.16-.345.292-.7a1.312,1.312,0,0,1,1.232-.862H274.1a1.312,1.312,0,0,0,1.312-1.312v-2.072A1.312,1.312,0,0,0,274.1,315.2Zm-12.324,9.37a7.021,7.021,0,1,1,7.022-7.022A7.021,7.021,0,0,1,261.774,324.574Z" transform="translate(-248.138 -303.916)" fill="#fff"/>
            </g>
            <g id="Group_16" data-name="Group 16" transform="translate(0 52.049)">
              <path id="Path_15" data-name="Path 15" d="M168.212,342.231h-1.57A1.235,1.235,0,0,1,165.409,341v-1.766a.758.758,0,0,0-.5-.709c-.185-.068-.371-.144-.551-.228a.765.765,0,0,0-.86.147l-1.249,1.249a1.233,1.233,0,0,1-1.744,0l-1.11-1.11a1.233,1.233,0,0,1,0-1.744l1.249-1.248a.764.764,0,0,0,.147-.86c-.083-.18-.16-.365-.229-.552a.758.758,0,0,0-.709-.5h-1.766a1.235,1.235,0,0,1-1.233-1.233v-1.569a1.235,1.235,0,0,1,1.233-1.233h1.766a.758.758,0,0,0,.709-.5c.069-.187.146-.373.229-.552a.765.765,0,0,0-.147-.86l-1.249-1.249a1.233,1.233,0,0,1,0-1.744l1.11-1.11a1.235,1.235,0,0,1,1.744,0l1.249,1.249a.764.764,0,0,0,.86.147c.178-.083.364-.159.551-.228a.758.758,0,0,0,.5-.709v-1.766a1.235,1.235,0,0,1,1.233-1.233h1.57a1.235,1.235,0,0,1,1.233,1.233v1.766a.758.758,0,0,0,.5.709c.188.069.373.146.551.228a.764.764,0,0,0,.86-.147l1.249-1.249a1.235,1.235,0,0,1,1.744,0l1.11,1.11a1.233,1.233,0,0,1,0,1.744l-1.249,1.249a.765.765,0,0,0-.147.86c.083.178.16.364.229.552a.758.758,0,0,0,.709.5h1.766A1.235,1.235,0,0,1,178,330.878v1.569a1.235,1.235,0,0,1-1.233,1.233H175a.758.758,0,0,0-.709.5c-.068.186-.145.372-.229.552a.764.764,0,0,0,.147.86l1.249,1.248a1.234,1.234,0,0,1,0,1.744l-1.11,1.11a1.233,1.233,0,0,1-1.744,0l-1.249-1.249a.766.766,0,0,0-.86-.147c-.181.084-.367.161-.552.229a.758.758,0,0,0-.5.709V341A1.235,1.235,0,0,1,168.212,342.231Zm-4.175-4.486a1.252,1.252,0,0,1,.526.116c.169.078.342.15.515.213a1.239,1.239,0,0,1,.81,1.158V341a.756.756,0,0,0,.755.755h1.57a.756.756,0,0,0,.754-.755v-1.766a1.239,1.239,0,0,1,.81-1.158c.173-.063.346-.135.515-.213a1.246,1.246,0,0,1,1.4.243l1.249,1.249a.772.772,0,0,0,1.067,0l1.11-1.11a.755.755,0,0,0,0-1.067l-1.249-1.248a1.245,1.245,0,0,1-.243-1.4c.078-.168.15-.341.213-.515A1.238,1.238,0,0,1,175,333.2h1.766a.755.755,0,0,0,.755-.755v-1.569a.755.755,0,0,0-.755-.755H175a1.239,1.239,0,0,1-1.158-.81c-.064-.175-.136-.348-.213-.515a1.245,1.245,0,0,1,.243-1.4l1.249-1.249a.755.755,0,0,0,0-1.067l-1.11-1.11a.756.756,0,0,0-1.067,0l-1.249,1.249a1.244,1.244,0,0,1-1.4.243c-.166-.077-.34-.149-.515-.214a1.238,1.238,0,0,1-.81-1.158v-1.766a.755.755,0,0,0-.754-.755h-1.57a.755.755,0,0,0-.755.755v1.766a1.238,1.238,0,0,1-.81,1.158c-.175.064-.349.136-.515.214a1.244,1.244,0,0,1-1.4-.243l-1.249-1.249a.756.756,0,0,0-1.067,0l-1.11,1.11a.754.754,0,0,0,0,1.067l1.249,1.249a1.244,1.244,0,0,1,.243,1.4c-.077.167-.149.34-.214.516a1.238,1.238,0,0,1-1.158.81h-1.766a.755.755,0,0,0-.755.755v1.569a.755.755,0,0,0,.755.755h1.766a1.238,1.238,0,0,1,1.158.81c.064.174.135.347.213.515a1.244,1.244,0,0,1-.243,1.4l-1.249,1.248a.754.754,0,0,0,0,1.067l1.11,1.11a.772.772,0,0,0,1.067,0l1.249-1.249A1.234,1.234,0,0,1,164.037,337.745Zm3.39-.524a5.558,5.558,0,1,1,5.558-5.558A5.564,5.564,0,0,1,167.427,337.221Zm0-10.637a5.079,5.079,0,1,0,5.079,5.079A5.085,5.085,0,0,0,167.427,326.584Z" transform="translate(-156.859 -321.095)" fill="#fff"/>
            </g>
          </g>
        </g>
        <g id="Group_27" data-name="Group 27" transform="translate(0 13.364)">
          <g id="Group_22" data-name="Group 22" transform="translate(63.022 27.031)" opacity="0.81">
            <path id="Path_16" data-name="Path 16" d="M405.755,299.4h-3.121a.239.239,0,0,1,0-.479h3.121a.239.239,0,0,1,0,.479Z" transform="translate(-388.339 -292.575)" fill="#fff"/>
            <path id="Path_17" data-name="Path 17" d="M405.755,320.883h-3.121a.239.239,0,0,1,0-.479h3.121a.239.239,0,0,1,0,.479Z" transform="translate(-388.339 -308.915)" fill="#fff"/>
            <g id="Group_21" data-name="Group 21">
              <g id="Group_20" data-name="Group 20">
                <g id="Group_19" data-name="Group 19">
                  <path id="Path_18" data-name="Path 18" d="M363.294,289.569H344.321a.65.65,0,0,1-.649-.649V273.057a.65.65,0,0,1,.649-.649h18.973a.65.65,0,0,1,.649.649v15.863A.65.65,0,0,1,363.294,289.569Zm-18.973-16.682a.171.171,0,0,0-.17.17v15.863a.171.171,0,0,0,.17.17h18.973a.171.171,0,0,0,.17-.17V273.057a.171.171,0,0,0-.17-.17Z" transform="translate(-343.672 -272.408)" fill="#fff"/>
                  <path id="Path_19" data-name="Path 19" d="M363.294,289.569H344.321a.65.65,0,0,1-.649-.649V273.057a.65.65,0,0,1,.649-.649h18.973a.65.65,0,0,1,.649.649v15.863A.65.65,0,0,1,363.294,289.569Zm-18.973-16.682a.171.171,0,0,0-.17.17v15.863a.171.171,0,0,0,.17.17h18.973a.171.171,0,0,0,.17-.17V273.057a.171.171,0,0,0-.17-.17Z" transform="translate(-343.672 -272.408)" fill="#fff" opacity="0.66"/>
                </g>
              </g>
              <path id="Path_20" data-name="Path 20" d="M368.419,288.975h-14.87a.239.239,0,1,1,0-.479h14.87a.239.239,0,1,1,0,.479Z" transform="translate(-351.002 -284.645)" fill="#fff"/>
              <path id="Path_21" data-name="Path 21" d="M368.419,309.826h-14.87a.239.239,0,0,1,0-.479h14.87a.239.239,0,0,1,0,.479Z" transform="translate(-351.002 -300.505)" fill="#fff"/>
              <path id="Path_22" data-name="Path 22" d="M361.565,299.4h-8.017a.239.239,0,1,1,0-.479h8.017a.239.239,0,1,1,0,.479Z" transform="translate(-351.002 -292.575)" fill="#fff"/>
              <path id="Path_23" data-name="Path 23" d="M361.565,320.883h-8.017a.239.239,0,1,1,0-.479h8.017a.239.239,0,1,1,0,.479Z" transform="translate(-351.002 -308.915)" fill="#fff"/>
              <path id="Path_24" data-name="Path 24" d="M358.955,330.835h-5.407a.239.239,0,1,1,0-.479h5.407a.239.239,0,1,1,0,.479Z" transform="translate(-351.002 -316.485)" fill="#fff"/>
            </g>
          </g>
          <g id="Group_26" data-name="Group 26" opacity="0.81">
            <path id="Path_25" data-name="Path 25" d="M150.787,190.039h-3.54a.239.239,0,0,1,0-.479h3.54a.239.239,0,0,1,0,.479Z" transform="translate(-131.06 -182.36)" fill="#fff"/>
            <path id="Path_26" data-name="Path 26" d="M150.787,214.412h-3.54a.239.239,0,1,1,0-.479h3.54a.239.239,0,0,1,0,.479Z" transform="translate(-131.06 -200.899)" fill="#fff"/>
            <g id="Group_25" data-name="Group 25">
              <g id="Group_24" data-name="Group 24">
                <g id="Group_23" data-name="Group 23">
                  <path id="Path_27" data-name="Path 27" d="M102.669,178.884H81.033a.65.65,0,0,1-.649-.649V160.128a.65.65,0,0,1,.649-.649h21.636a.65.65,0,0,1,.649.649v18.107A.65.65,0,0,1,102.669,178.884ZM81.033,159.958a.17.17,0,0,0-.17.17v18.107a.17.17,0,0,0,.17.17h21.636a.17.17,0,0,0,.17-.17V160.128a.17.17,0,0,0-.17-.17Z" transform="translate(-80.384 -159.479)" fill="#fff"/>
                  <path id="Path_28" data-name="Path 28" d="M102.669,178.884H81.033a.65.65,0,0,1-.649-.649V160.128a.65.65,0,0,1,.649-.649h21.636a.65.65,0,0,1,.649.649v18.107A.65.65,0,0,1,102.669,178.884ZM81.033,159.958a.17.17,0,0,0-.17.17v18.107a.17.17,0,0,0,.17.17h21.636a.17.17,0,0,0,.17-.17V160.128a.17.17,0,0,0-.17-.17Z" transform="translate(-80.384 -159.479)" fill="#fff" opacity="0.66"/>
                </g>
              </g>
              <path id="Path_29" data-name="Path 29" d="M108.427,178.21H91.556a.239.239,0,0,1,0-.479h16.871a.239.239,0,0,1,0,.479Z" transform="translate(-88.7 -173.362)" fill="#fff"/>
              <path id="Path_30" data-name="Path 30" d="M108.427,201.867H91.556a.239.239,0,1,1,0-.479h16.871a.239.239,0,0,1,0,.479Z" transform="translate(-88.7 -191.356)" fill="#fff"/>
              <path id="Path_31" data-name="Path 31" d="M100.652,190.039h-9.1a.239.239,0,0,1,0-.479h9.1a.239.239,0,1,1,0,.479Z" transform="translate(-88.7 -182.36)" fill="#fff"/>
              <path id="Path_32" data-name="Path 32" d="M100.652,214.412h-9.1a.239.239,0,0,1,0-.479h9.1a.239.239,0,1,1,0,.479Z" transform="translate(-88.7 -200.899)" fill="#fff"/>
              <path id="Path_33" data-name="Path 33" d="M97.69,225.7H91.556a.239.239,0,1,1,0-.479H97.69a.239.239,0,1,1,0,.479Z" transform="translate(-88.7 -209.487)" fill="#fff"/>
            </g>
          </g>
        </g>
      </g>
      <g id="Group_34" data-name="Group 34" transform="translate(0 27.362)">
        <g id="Group_30" data-name="Group 30" transform="translate(55.824 0)">
          <g id="Group_29" data-name="Group 29">
            <path id="Path_34" data-name="Path 34" d="M328.554,158.019H317.8a1.154,1.154,0,0,0-1.067.876l-.356,1.182a1.154,1.154,0,0,1-1.067.876H299.9a1.226,1.226,0,0,0-1.13,1.3h0V179.7a1.226,1.226,0,0,0,1.13,1.3h28.652a1.258,1.258,0,0,0,1.207-1.3V159.323A1.258,1.258,0,0,0,328.554,158.019Z" transform="translate(-298.772 -158.019)" fill="#3e479b"/>
            <path id="Path_35" data-name="Path 35" d="M317.563,164.5l.381-1.182a1.217,1.217,0,0,1,1.139-.876h9.472a1.258,1.258,0,0,1,1.207,1.3v20.372a1.258,1.258,0,0,1-1.207,1.3H299.978a1.258,1.258,0,0,1-1.206-1.3V166.683a1.258,1.258,0,0,1,1.206-1.3h16.444A1.217,1.217,0,0,0,317.563,164.5Z" transform="translate(-298.772 -161.386)" fill="#6d6cd4"/>
            <path id="Path_36" data-name="Path 36" d="M323.919,169.9l.359-1.115a1.147,1.147,0,0,1,1.074-.825h8.928a1.186,1.186,0,0,1,1.137,1.229v19.2a1.186,1.186,0,0,1-1.137,1.229H307.345a1.186,1.186,0,0,1-1.137-1.229V171.953a1.186,1.186,0,0,1,1.137-1.229h15.5A1.147,1.147,0,0,0,323.919,169.9Z" transform="translate(-304.428 -165.58)" fill="#fff" opacity="0.12"/>
          </g>
          <path id="Path_37" data-name="Path 37" d="M391.373,229.579H384.3a.239.239,0,1,1,0-.479h7.068a.828.828,0,0,0,.827-.827v-5.607a.239.239,0,0,1,.479,0v5.607A1.308,1.308,0,0,1,391.373,229.579Z" transform="translate(-363.649 -207.009)" fill="#fff"/>
        </g>
        <g id="Group_33" data-name="Group 33" transform="translate(0 19.833)">
          <g id="Group_32" data-name="Group 32">
            <g id="Group_31" data-name="Group 31">
              <path id="Path_38" data-name="Path 38" d="M66.769,240.875H77.6a1.2,1.2,0,0,1,1.074.985l.359,1.33a1.2,1.2,0,0,0,1.074.985h15.5a1.334,1.334,0,0,1,1.137,1.467h0v19.617a1.334,1.334,0,0,1-1.137,1.467H66.769a1.359,1.359,0,0,1-1.214-1.467V242.342A1.358,1.358,0,0,1,66.769,240.875Z" transform="translate(-65.555 -240.875)" fill="#f28393"/>
              <path id="Path_39" data-name="Path 39" d="M77.832,248.169l-.383-1.33a1.254,1.254,0,0,0-1.147-.985H66.769a1.359,1.359,0,0,0-1.214,1.467v22.916a1.359,1.359,0,0,0,1.214,1.467h28.76a1.359,1.359,0,0,0,1.214-1.467V250.621a1.358,1.358,0,0,0-1.214-1.467H78.979A1.254,1.254,0,0,1,77.832,248.169Z" transform="translate(-65.555 -244.662)" fill="#fff" opacity="0.12"/>
              <path id="Path_40" data-name="Path 40" d="M77.127,254.239l-.361-1.254a1.182,1.182,0,0,0-1.081-.928H66.7a1.281,1.281,0,0,0-1.144,1.383v21.6a1.281,1.281,0,0,0,1.144,1.383H93.808a1.28,1.28,0,0,0,1.144-1.383V256.55a1.281,1.281,0,0,0-1.144-1.383h-15.6A1.182,1.182,0,0,1,77.127,254.239Z" transform="translate(-65.555 -249.38)" fill="#fff" opacity="0.12"/>
            </g>
          </g>
          <path id="Path_41" data-name="Path 41" d="M74.117,262.141a.228.228,0,0,1-.214-.239v-3.322a.778.778,0,0,1,.73-.816H79.1a.241.241,0,0,1,0,.479H74.633a.321.321,0,0,0-.3.337V261.9A.228.228,0,0,1,74.117,262.141Z" transform="translate(-71.905 -253.721)" fill="#fff"/>
        </g>
      </g>
      <g id="Group_49" data-name="Group 49" transform="translate(14.687 0)">
        <g id="Group_42" data-name="Group 42" transform="translate(5.487)">
          <g id="Group_36" data-name="Group 36" transform="translate(0 6.81)">
            <g id="Group_35" data-name="Group 35">
              <rect id="Rectangle_2" data-name="Rectangle 2" width="49.259" height="18.498" rx="9.249" transform="translate(0 11.593)" fill="#c5d9ff"/>
              <circle id="Ellipse_9" data-name="Ellipse 9" cx="13.008" cy="13.008" r="13.008" transform="translate(11.622)" fill="#599af2"/>
            </g>
          </g>
          <g id="Group_37" data-name="Group 37">
            <rect id="Rectangle_3" data-name="Rectangle 3" width="49.259" height="18.498" rx="9.249" transform="translate(0 15.679)" fill="#599af2"/>
            <circle id="Ellipse_10" data-name="Ellipse 10" cx="13.008" cy="13.008" r="13.008" transform="translate(7.536 10.294) rotate(-23.309)" fill="#599af2"/>
          </g>
          <g id="Group_39" data-name="Group 39" opacity="0.35">
            <g id="Group_38" data-name="Group 38">
              <rect id="Rectangle_4" data-name="Rectangle 4" width="49.259" height="18.498" rx="9.249" transform="translate(0 15.679)" fill="#ecf1f7"/>
              <circle id="Ellipse_11" data-name="Ellipse 11" cx="13.008" cy="13.008" r="13.008" transform="translate(7.536 10.294) rotate(-23.309)" fill="#ecf1f7"/>
            </g>
          </g>
          <g id="Group_41" data-name="Group 41" transform="translate(17.401 14.573)">
            <g id="Group_40" data-name="Group 40" transform="translate(3.588)">
              <path id="Path_42" data-name="Path 42" d="M238.118,109.046a.6.6,0,0,1-.419-1.025l3.491-3.432,3.435,3.435a.6.6,0,1,1-.846.846l-2.6-2.6-2.645,2.6A.6.6,0,0,1,238.118,109.046Z" transform="translate(-237.52 -104.589)" fill="#fff"/>
              <path id="Path_43" data-name="Path 43" d="M250.825,114.581a.6.6,0,0,1-.6-.6v-7.775a.6.6,0,1,1,1.2,0v7.775A.6.6,0,0,1,250.825,114.581Z" transform="translate(-247.185 -105.365)" fill="#fff"/>
            </g>
            <path id="Path_44" data-name="Path 44" d="M235.415,138.742h-11.4a1.484,1.484,0,0,1-1.482-1.482v-4.142a.6.6,0,1,1,1.2,0v4.142a.286.286,0,0,0,.286.286h11.4a.375.375,0,0,0,.375-.375v-4.053a.6.6,0,1,1,1.2,0v4.053A1.574,1.574,0,0,1,235.415,138.742Z" transform="translate(-222.531 -125.834)" fill="#fff"/>
          </g>
        </g>
        <g id="Group_44" data-name="Group 44" transform="translate(0 29.87)">
          <path id="Path_45" data-name="Path 45" d="M184.016,210.813l-32.631,10.781a1.522,1.522,0,0,1-1.922-.967L138.681,188a1.522,1.522,0,0,1,.968-1.922l32.632-10.781a1.521,1.521,0,0,1,1.922.967l10.781,32.631A1.522,1.522,0,0,1,184.016,210.813Z" transform="translate(-135.805 -173.607)" fill="#4c65ba" opacity="0.36"/>
          <rect id="Rectangle_5" data-name="Rectangle 5" width="37.41" height="37.41" rx="6.357" transform="translate(0 11.736) rotate(-18.283)" fill="#fff"/>
          <g id="Group_43" data-name="Group 43" transform="translate(4.004 4.031)">
            <rect id="Rectangle_6" data-name="Rectangle 6" width="31.038" height="31.038" transform="translate(0 9.737) rotate(-18.283)" fill="#c5d9ff"/>
            <path id="Path_46" data-name="Path 46" d="M176.268,272.369l-2.2-6.672,3.225-7.772a2.231,2.231,0,0,1,2.734-1.282l5.969,1.854a.8.8,0,0,0,.922-.351l4.969-8.271a4.129,4.129,0,0,1,5.154-1.661l5.473,2.354.051.153,3.86,11.685-.341.112Zm-1.439-6.644,1.9,5.737,28.789-9.512-3.585-10.85-5.176-2.227a3.408,3.408,0,0,0-4.254,1.371l-4.969,8.271a1.513,1.513,0,0,1-1.751.668l-5.969-1.854a1.516,1.516,0,0,0-1.858.871Z" transform="translate(-166.781 -232.912)" fill="#fff" opacity="0.47"/>
            <path id="Path_47" data-name="Path 47" d="M212.232,229.9a3.821,3.821,0,1,1,1.2-.193A3.826,3.826,0,0,1,212.232,229.9Zm-.005-6.922a3.1,3.1,0,1,0,2.947,2.129A3.083,3.083,0,0,0,212.227,222.977Z" transform="translate(-192.906 -213.422)" fill="#fff" opacity="0.47"/>
          </g>
        </g>
        <g id="Group_46" data-name="Group 46" transform="translate(29.59 42.986)">
          <rect id="Rectangle_7" data-name="Rectangle 7" width="28.518" height="28.518" rx="6.357" transform="translate(1.447 1.447)" fill="#4c65ba" opacity="0.36"/>
          <rect id="Rectangle_8" data-name="Rectangle 8" width="28.518" height="28.518" rx="6.357" fill="#fff"/>
          <g id="Group_45" data-name="Group 45" transform="translate(2.086 2.429)">
            <rect id="Rectangle_9" data-name="Rectangle 9" width="23.661" height="23.661" transform="translate(0.326)" fill="#6081a8" opacity="0.79"/>
            <path id="Path_48" data-name="Path 48" d="M283.626,290.33H259.247v-5.474l4.213-4.879a1.787,1.787,0,0,1,2.4-.287l3.877,2.769a.523.523,0,0,0,.646-.029l5.575-4.8a3.233,3.233,0,0,1,4.24.031l3.427,3.039Zm-23.661-.718h22.943v-8.587l-3.185-2.824a2.513,2.513,0,0,0-3.3-.024l-5.575,4.8a1.239,1.239,0,0,1-1.532.069l-3.877-2.769a1.072,1.072,0,0,0-1.44.172l-4.039,4.677Z" transform="translate(-259.247 -266.463)" fill="#fff" opacity="0.47"/>
            <path id="Path_49" data-name="Path 49" d="M306.6,255.046a3,3,0,1,1,3-3A3,3,0,0,1,306.6,255.046Zm0-5.276a2.279,2.279,0,1,0,2.279,2.279A2.282,2.282,0,0,0,306.6,249.77Z" transform="translate(-292.987 -245.315)" fill="#fff" opacity="0.47"/>
          </g>
        </g>
        <g id="Group_48" data-name="Group 48" transform="translate(16.355 57.063)">
          <rect id="Rectangle_10" data-name="Rectangle 10" width="18.422" height="18.422" rx="6.357" transform="translate(1.204 7.011) rotate(-20.54)" fill="#4c65ba" opacity="0.36"/>
          <rect id="Rectangle_11" data-name="Rectangle 11" width="18.422" height="18.422" rx="6.357" transform="translate(0 6.464) rotate(-20.54)" fill="#fff"/>
          <g id="Group_47" data-name="Group 47" transform="translate(2.01 2.023)">
            <rect id="Rectangle_12" data-name="Rectangle 12" width="15.284" height="15.284" transform="matrix(0.936, -0.351, 0.351, 0.936, 0, 5.363)" fill="#599af2"/>
            <path id="Path_50" data-name="Path 50" d="M220.961,333.466l-1.3-3.475,1.459-3.95a1.28,1.28,0,0,1,1.539-.8l2.973.8a.211.211,0,0,0,.24-.1l2.285-4.166a2.218,2.218,0,0,1,2.729-1l2.815,1.082,2.247,6Zm-.536-3.477.956,2.552,13.64-5.111-1.882-5.022-2.514-.966a1.5,1.5,0,0,0-1.842.675l-2.285,4.166a.927.927,0,0,1-1.055.451l-2.973-.8a.564.564,0,0,0-.679.351Z" transform="translate(-215.823 -313.428)" fill="#fff" opacity="0.47"/>
            <path id="Path_51" data-name="Path 51" d="M237.039,312.9a2.063,2.063,0,1,1,1.93-2.787h0a2.063,2.063,0,0,1-1.93,2.787Zm0-3.409a1.345,1.345,0,1,0,1.261.873A1.342,1.342,0,0,0,237.035,309.49Z" transform="translate(-227.472 -304.411)" fill="#fff" opacity="0.47"/>
          </g>
        </g>
      </g>
    </g>
  </g>
</svg>
