<svg id="Icon_ionic-md-wallet" data-name="Icon ionic-md-wallet" xmlns="http://www.w3.org/2000/svg" width="24.016" height="22.168" viewBox="0 0 24.016 22.168">
  <path id="Path_6" data-name="Path 6" d="M12.306,20.508V10.66a2.464,2.464,0,0,1,2.465-2.465H26.144V6.965A2.455,2.455,0,0,0,23.7,4.5H5.915a2.5,2.5,0,0,0-2.54,2.425V24.244a2.5,2.5,0,0,0,2.54,2.425H23.7A2.452,2.452,0,0,0,26.138,24.2v-1.23H14.765A2.463,2.463,0,0,1,12.306,20.508Z" transform="translate(-3.375 -4.5)" fill="#373737"/>
  <path id="Path_7" data-name="Path 7" d="M17.227,12.877v8.082a.926.926,0,0,0,.924.924h10.8a.926.926,0,0,0,.924-.924V12.877a.926.926,0,0,0-.924-.924H18.15A.926.926,0,0,0,17.227,12.877Zm4.451,5.883A1.848,1.848,0,1,1,23.4,17.033,1.848,1.848,0,0,1,21.678,18.759Z" transform="translate(-5.854 -5.834)" fill="#373737"/>
</svg>
