<svg width="25" height="19" viewBox="0 0 25 19" fill="none" xmlns="http://www.w3.org/2000/svg">
<path d="M18.9512 3.8125C18.3535 4.53906 17.9375 5.25391 17.7031 5.95703C17.4805 6.66016 17.3691 7.32812 17.3691 7.96094C17.7676 7.96094 18.1719 7.99023 18.582 8.04883C18.9922 8.10742 19.3555 8.20117 19.6719 8.33008C20 8.45898 20.2637 8.62305 20.4629 8.82227C20.6738 9.02148 20.7793 9.26172 20.7793 9.54297V12.1094C20.7793 12.4141 20.6738 12.6777 20.4629 12.9004C20.2637 13.123 20 13.3047 19.6719 13.4453C19.3438 13.5859 18.9746 13.6914 18.5645 13.7617C18.1543 13.832 17.7441 13.8672 17.334 13.8672C16.9004 13.8672 16.4727 13.832 16.0508 13.7617C15.6406 13.6914 15.2715 13.5859 14.9434 13.4453C14.6152 13.3047 14.3516 13.123 14.1523 12.9004C13.9531 12.6777 13.8535 12.4141 13.8535 12.1094V10.6328C13.8535 10.3047 13.8711 9.85352 13.9062 9.2793C13.9531 8.69336 14.0527 8.07227 14.2051 7.41602C14.3691 6.75977 14.5977 6.10938 14.8906 5.46484C15.1836 4.82031 15.5879 4.26953 16.1035 3.8125H18.9512ZM9.35352 3.8125C8.75586 4.53906 8.33398 5.25391 8.08789 5.95703C7.85352 6.66016 7.73633 7.32812 7.73633 7.96094C8.14648 7.96094 8.55664 7.99023 8.9668 8.04883C9.37695 8.10742 9.74023 8.20117 10.0566 8.33008C10.3848 8.45898 10.6484 8.62305 10.8477 8.82227C11.0469 9.02148 11.1465 9.26172 11.1465 9.54297V12.1094C11.1465 12.4141 11.0469 12.6777 10.8477 12.9004C10.6484 13.123 10.3848 13.3047 10.0566 13.4453C9.72852 13.5859 9.35938 13.6914 8.94922 13.7617C8.53906 13.832 8.12305 13.8672 7.70117 13.8672C7.2793 13.8672 6.85742 13.832 6.43555 13.7617C6.02539 13.6914 5.65625 13.5859 5.32812 13.4453C5 13.3047 4.73047 13.123 4.51953 12.9004C4.32031 12.6777 4.2207 12.4141 4.2207 12.1094V10.6328C4.2207 10.3047 4.23828 9.85352 4.27344 9.2793C4.32031 8.69336 4.41992 8.07227 4.57227 7.41602C4.73633 6.75977 4.96484 6.10938 5.25781 5.46484C5.55078 4.82031 5.95508 4.26953 6.4707 3.8125H9.35352Z" fill="white"/>
</svg>
